# xmcd CD database file
#
# Track frame offsets:
#	150
#	16384
#	42658
#	65152
#	89582
#	109238
#	128671
#	161476
#	181908
#	198985
#	213507
#	235159
#
# Disc length: 3385 seconds
#
# Revision: 6
# Processed by: cddbd v1.5.2PL0 Copyright (c) Steve Scherf et al.
# Submitted via: CDex 1.51
#
DISCID=ab0d370c
DTITLE=Various Artist - Metal Hammer Off Road Tracks Vol. 66
DYEAR=2003
DGENRE=Metal
TTITLE0=Die Apokalyptischen Reiter - Warum?
TTITLE1=Annihilator - Alison hell (live)
TTITLE2=Seven Witches - Mental messiah
TTITLE3=Cradle Of Filth - Hurt and virtue
TTITLE4=Crosscut - Platform
TTITLE5=Gurd - Razorblade
TTITLE6=Tourniquet - Where moth and rust destroy
TTITLE7=Narnia - Judgement day
TTITLE8=Evereve - Abraza la luz
TTITLE9=Pinkostar - Buenos dias
TTITLE10=To/Die/For - Too much ain't enough
TTITLE11=Backslash - Give me a sign
EXTD=YEAR: 2003
EXTT0=
EXTT1=
EXTT2=
EXTT3=
EXTT4=
EXTT5=
EXTT6=
EXTT7=
EXTT8=
EXTT9=
EXTT10=
EXTT11=
PLAYORDER=
